<svg width="600" height="600" viewBox="0 0 600 600" fill="none" xmlns="http://www.w3.org/2000/svg">
<g clip-path="url(#clip0_153_4683)">
<path d="M186.697 212.521C203.979 212.521 220.765 217.643 235.013 227.116C249.265 217.642 266.051 212.521 283.333 212.521C300.615 212.521 317.401 217.643 331.65 227.116C345.901 217.643 362.687 212.521 379.969 212.521C397.25 212.521 414.037 217.643 428.287 227.116C442.536 217.643 459.323 212.521 476.606 212.521C480.015 212.521 483.375 212.739 486.684 213.122C486.424 172.695 453.675 140 413.302 140C394.796 140 377.894 146.87 364.984 158.203C352.074 146.87 335.171 140 316.667 140C298.161 140 281.258 146.87 268.349 158.203C255.439 146.87 238.536 140 220.031 140C201.526 140 184.623 146.87 171.711 158.203C158.802 146.87 141.899 140 123.394 140C82.8593 140 50 172.953 50 213.605C50 246.351 71.3285 274.087 100.808 283.642C108.575 243.184 144.124 212.521 186.697 212.521Z" fill="#A1E092"/>
<path d="M485.426 227.199C482.533 226.852 479.592 226.651 476.605 226.651C458.099 226.651 441.196 233.522 428.287 244.856C415.377 233.522 398.474 226.651 379.969 226.651C361.462 226.651 344.559 233.522 331.649 244.856C318.741 233.522 301.837 226.651 283.332 226.651C264.826 226.651 247.924 233.522 235.013 244.856C222.104 233.522 205.201 226.651 186.696 226.651C150.795 226.651 120.935 252.508 114.574 286.661C113.781 290.916 113.344 295.295 113.314 299.772C116.624 299.39 119.983 299.172 123.393 299.172C140.675 299.172 157.461 304.294 171.709 313.767C185.961 304.293 202.747 299.172 220.029 299.172C237.31 299.172 254.097 304.294 268.347 313.767C282.596 304.294 299.383 299.172 316.665 299.172C333.946 299.172 350.733 304.294 364.983 313.767C379.233 304.294 396.021 299.172 413.301 299.172C455.875 299.172 491.424 329.835 499.192 370.293C528.671 360.738 550 333 550 300.257C550 262.601 521.798 231.572 485.426 227.199Z" fill="#86A8FE"/>
<path d="M485.427 373.314C479.064 339.161 449.203 313.302 413.303 313.302C394.797 313.302 377.895 320.173 364.985 331.507C352.075 320.173 335.172 313.302 316.667 313.302C298.161 313.302 281.258 320.173 268.349 331.507C255.439 320.173 238.537 313.302 220.031 313.302C201.524 313.302 184.623 320.173 171.711 331.507C158.802 320.173 141.899 313.302 123.394 313.302C120.407 313.302 117.467 313.502 114.573 313.85C109.831 314.419 105.228 315.437 100.806 316.871C71.3285 326.425 50 354.162 50 386.908C50 427.559 82.8593 460.513 123.394 460.513C141.899 460.513 158.802 453.643 171.711 442.308C184.623 453.642 201.524 460.513 220.031 460.513C238.537 460.513 255.439 453.643 268.349 442.308C281.258 453.642 298.161 460.513 316.667 460.513C335.172 460.513 352.075 453.643 364.985 442.308C377.895 453.642 394.797 460.513 413.303 460.513C453.675 460.513 486.424 427.818 486.685 387.391C486.687 387.23 486.698 387.069 486.698 386.908C486.696 382.261 486.248 377.722 485.427 373.314Z" fill="#FF9393"/>
</g>
<defs>
<clipPath id="clip0_153_4683">
<rect width="500" height="320.513" fill="white" transform="translate(50 140)"/>
</clipPath>
</defs>
</svg>
